# xmcd
#
# Track frame offsets:
#	150
#	2799
#	7886
#	30012
#	43194
#	60053
#	78946
#	97825
#	122682
#	137480
#	153085
#	172452
#	186721
#	202201
#	208445
#	227812
#	242346
#	254078
#	272121
#	291627
#	312164
#	336478
#	347278
#
# Disc length: 4761 seconds
#
# Revision: 1
# Processed by: cddbd v1.5.2PL0 Copyright (c) Steve Scherf et al.
# Submitted via: audiograbber 1.83.01
#
DISCID=4b129717
DTITLE=DJ 4Sho - Southern Slaughter 14 Mixtape
DYEAR=2009
DGENRE=Rap
TTITLE0=Smitty - Intro
TTITLE1=Hezeleo - Exclusive Freestyle
TTITLE2=Gucci Mane f./ Smitty - Whut You Fittin 2 Do
TTITLE3=OJ Da Juiceman f./ Rich Boy - Count the 100s
TTITLE4=Gucci Mane - Photo Shoot
TTITLE5=Rick Ross - Mafia Music
TTITLE6=Sparkdawg f./ Tum Tum, Big, Supastar and Fat Pimp - I Don't Want Ya Girl
TTITLE7=Gucci Mane f./ Keak Da Sneak, Messy Marv, Yukmouth and Mitchy Slick - Smo
TTITLE7=ke One
TTITLE8=OJ Da Juiceman f./ Nitti - Big Head
TTITLE9=Juvenile f./ B.G. - Feelin' Rite
TTITLE10=UGK - Da Game Been Good to Me
TTITLE11=Gucci Mane f./ Nikki Minaj - Pussy Nigga
TTITLE12=Smitty f./ Hezeleo - Always
TTITLE13=Jokaman - Freestyle
TTITLE14=Young Buck f./ Jimmie Hoffa and Bloodraw - Stupid Money
TTITLE15=Smitty f./ Hunt - Talk Rap
TTITLE16=Z-Ro - Top Notch
TTITLE17=Gucci Mane f./ Alley Boy - Look at My Charm
TTITLE18=Rich Boy f./ Supavillin and Al Myte - Drop Top
TTITLE19=Smitty f./ Hezeleo, Dilan and N.F.L. - Get Right
TTITLE20=Lil Flip - Drank in My Cup
TTITLE21=Big Stack$$$$ - I Gotta Eat
TTITLE22=Smitty - It's a Shame
EXTD=
EXTT0=
EXTT1=
EXTT2=
EXTT3=
EXTT4=
EXTT5=
EXTT6=
EXTT7=
EXTT8=
EXTT9=
EXTT10=
EXTT11=
EXTT12=
EXTT13=
EXTT14=
EXTT15=
EXTT16=
EXTT17=
EXTT18=
EXTT19=
EXTT20=
EXTT21=
EXTT22=
PLAYORDER=
